<svg xmlns="http://www.w3.org/2000/svg" aria-hidden="true" overflow="hidden"><defs>

<symbol id="smartphone"><path d="M9 0H2L0 2v13l2 1h7l1-1V2L9 0ZM2 1h7v11H1V2l1-1Zm7 14H1v-2h8v2Z"/><path d="M2 14c1 0 1 0 0 0 0 1 0 1 0 0-1 0-1 0 0 0Z"/>

</symbol><symbol id="email"><path d="M15 0H2L0 2v9l2 1h13l1-1V2l-1-2Zm0 1L8 7 1 1h14Zm0 10H1V2l7 6 7-6v9Z"/></symbol>

<symbol id="instagram"><g clip-path="url(#clip0_1_464)"><path d="M20 6V3l-2-1-1-1-3-1A68 68 0 0 0 3 1L2 2 1 3 0 6a68 68 0 0 0 1 11l1 1 1 1 3 1a73 73 0 0 0 11-1l3-2v-3a73 73 0 0 0 0-8Zm-2 8v2l-2 2h-2a70 70 0 0 1-10 0l-1-1-1-1v-2A70 70 0 0 1 2 4l1-1 1-1h2a71 71 0 0 1 10 0l1 1 1 1v2a70 70 0 0 1 0 8Z"/><path d="M10 5a5 5 0 1 0 0 10 5 5 0 0 0 0-10Zm0 8a3 3 0 1 1 0-6 3 3 0 0 1 0 6ZM17 5a1 1 0 1 1-3 0 1 1 0 0 1 3 0Z"/></g><defs><clipPath id="clip0_1_464"><path fill="#fff" d="M0 0h20v20H0z"/></clipPath></defs></symbol>

<symbol id="twitter"><g clip-path="url(#clip0_1_486)"><path d="M20 4h-2l1-2-2 1a4 4 0 0 0-7 4C6 7 3 5 1 3a4 4 0 0 0 2 5H1c0 2 1 3 3 4a4 4 0 0 1-2 0c1 1 2 3 4 3a8 8 0 0 1-6 1l6 2A12 12 0 0 0 18 6l2-2Z"/></g><defs><clipPath id="clip0_1_486"><path fill="#fff" d="M0 0h20v20H0z"/></clipPath></defs></symbol>

<symbol id="facebook"><g clip-path="url(#clip0_1_482)"><path d="M13 3h2V0h-3c-2 0-4 2-4 5v3H5v3h3v9h4v-9h2l1-3h-3V5l1-2Z"/></g><defs><clipPath id="clip0_1_482"><path fill="#fff" d="M0 0h20v20H0z"/></clipPath></defs></symbol>

<symbol id="linkedin"><g clip-path="url(#clip0_1_476)"><path d="M20 20v-7c0-4-1-7-5-7l-4 2V7H7v13h4v-7c0-1 1-3 3-3s2 2 2 3v7h4ZM0 7h4v13H0V7ZM2 0 0 2c0 2 1 3 2 3 2 0 3-1 3-3 0-1-1-2-3-2Z"/></g><defs><clipPath id="clip0_1_476"><path fill="#fff" d="M0 0h20v20H0z"/></clipPath></defs></symbol>

<symbol id="antena"><path fill="#212121" d="M67 48 49 30l2-10h2a5 5 0 1 0-5-3l-11 1L20 0h-2l-3 4v1l1 2a33 33 0 0 0 6 39v15H8c-3 0-6 2-6 6v2l2 1h53l1-1v-2c0-4-2-6-5-6H39v-6a33 33 0 0 0 22-4l1 2 1 1 1-1 3-3v-2ZM51 14a2 2 0 1 1 2 4 2 2 0 0 1-2-4Zm-3 7-1 7-3-3 4-4Zm-1-2-4 5-4-4 8-1Zm6 44c1 0 3 2 3 4v1H5v-1c0-2 1-4 3-4h45Zm-17-5v3H25v-3h11Zm-11-2v-9c0-3 2-5 5-5 4 0 6 2 6 5v9H25Zm14-4v-5c0-4-4-7-9-7-3 0-5 1-7 4-9-10-11-24-5-35l41 41c-6 3-14 4-20 2Zm24-1-1-2L19 6l-2-2 2-1 17 17 29 29-2 2Z"/><path fill="#2196F3" d="M30 44a4 4 0 0 0 0 7 3 3 0 1 0 0-7Zm1 5a1 1 0 1 1-1-2 1 1 0 0 1 1 2Z"/></symbol>

<symbol id="clock"><g clip-path="url(#clip0_1_344)"><path fill="#212121" d="M68 33a33 33 0 1 0-43 32h1l1-1 8-26a4 4 0 1 0-2-8L22 19a1 1 0 0 0-2 2l11 11c-1 1 0 4 1 5l-8 25a31 31 0 1 1 23-1v-4a1 1 0 0 0-3 0l-8 7a1 1 0 0 0 0 3l11 3a1 1 0 0 0 2-2l-1-4c12-5 20-17 20-31Zm-33-1a1 1 0 1 1 0 3 1 1 0 0 1 0-3Zm5 33 4-5 2 7-6-2Z"/><path fill="#2196F3" d="M34 7v3a1 1 0 1 0 2 0V7a1 1 0 0 0-2 0ZM8 32a1 1 0 0 0 0 3h3a1 1 0 1 0 0-3H8ZM61 35a1 1 0 1 0 0-3h-2a1 1 0 0 0 0 3h2Z"/></g><defs><clipPath id="clip0_1_344"><path fill="#fff" d="M0 0h70v70H0z"/></clipPath></defs></symbol>

<symbol id="diagram"><g clip-path="url(#clip0_1_354)"><path fill="#2196F3" d="M33 33h2v10h-2V33ZM42 37h2v6h-2v-6ZM23 41h3v2h-3v-2ZM16 40h3v3h-3v-3Z"/><path fill="#212121" d="M3 62h56c2 0 4-2 4-4v-4c0-2-2-4-4-4h-1V21l7-6a4 4 0 1 0-2-2l-5 5v-3c0-2-1-3-3-3H8c-2 0-3 1-3 3v35H3c-1 0-3 2-3 4v4c0 2 2 4 3 4Zm63-51a1 1 0 1 1 0 2 1 1 0 0 1 0-2ZM7 15l1-1h47l1 1v5l-2 2v-4l-2-2H10l-1 2v29l1 1h42l2-1V26l2-3v27H7V15Zm10 15a3 3 0 1 0 3 6l4 2h1l9-10 8 7h2l7-7v18H12V19h39v6l-8 7-8-6h-2l-9 10-3-2c0-2-2-4-4-4Zm2 4a1 1 0 1 1-3 0 1 1 0 0 1 3 0Zm7 19h11v1l-1 1h-9l-1-1v-1ZM2 54l1-1h20v1c0 2 2 3 4 3h9c2 0 4-1 4-3v-1h19l2 1v4l-2 2H3l-1-2v-4Z"/></g><defs><clipPath id="clip0_1_354"><path fill="#fff" d="M0 0h70v70H0z"/></clipPath></defs></symbol>

<symbol id="astronaut"><path fill="#2196F3" d="m70 10-1-1-4-1-2-3h-2l-2 3-4 1a1 1 0 0 0-1 2l3 3-1 4a1 1 0 0 0 2 1l4-2 4 2a1 1 0 0 0 1-1v-4l3-3v-1Zm-5 3-1 1 1 2-3-1a1 1 0 0 0-1 0l-2 1 1-2-1-1-2-2h3l1-1 1-2 1 2 1 1h2l-1 2ZM57 45h-2v2h2v-2ZM57 50h-2v2h2v-2ZM60 47h-3v3h3v-3ZM55 47h-2v3h2v-3ZM49 58h-2v2h2v-2ZM49 62h-2v3h2v-3ZM51 60h-2v2h2v-2ZM47 60h-3v2h3v-2ZM35 53h-2v2h2v-2ZM35 58h-2v2h2v-2ZM37 55h-2v3h2v-3ZM33 55h-3v3h3v-3ZM13 13h-3v3h3v-3ZM13 18h-3v2h3v-2ZM15 16h-2v2h2v-2ZM10 16H8v2h2v-2Z"/><path fill="#212121" d="m54 31-3-2-2 1-3 2-4 3-3-1a15 15 0 0 0-7-29 15 15 0 0 0-12 24h-7l-7 3-4 2a4 4 0 0 0 4 7l3-2 5-2h3L5 49l-3 3a4 4 0 0 0 0 5 4 4 0 0 0 5 0l3-3 4-3 2 2-4 4-3 3a4 4 0 0 0 0 5 4 4 0 0 0 5 0l3-3 5-5 2-2 11-12 8 1h1l7-5 3-3v-5ZM5 39H3a2 2 0 0 1 0-3l3-1 1 2v1l-2 1Zm7-4-3 2-1-2v-1l4-2v3Zm33-15-1 6-9-4-2-3 3-11c6 2 9 7 9 12Zm-25 0A13 13 0 0 1 34 8l-3 10c-2 0-4 2-4 4a4 4 0 0 0 7 2l9 4a13 13 0 0 1-23-8Zm13 2-2 2-2-2 2-2 2 2ZM5 55H4a1 1 0 0 1 0-2l2-2 1 2-2 2Zm7 8h-1a1 1 0 0 1 0-2l2-2 1 1 1 1-3 2Zm8-7-4 3h-1l-1-1 4-4v-1h1-1v-1l-3-3-1-1h-1l-4 3-2-2 6-5 9 10-2 2Zm15-16a1 1 0 0 0-1 1L24 52l-10-9 6-7a1 1 0 0 0 0-2h-5v-3h7a15 15 0 0 0 13 4h1l5 3v1l1 2-7-1Zm9 1-1-4 3-2 1 1 1 2-4 3Zm8-7-2 2-2-3 2-1h1a2 2 0 0 1 1 2Z"/><path fill="#212121" d="m30 41-5-5h-2l-4 5a1 1 0 0 0 0 1l4 5a1 1 0 0 0 2 0l5-5a1 1 0 0 0 0-1Zm-6 3-3-3 3-3 3 3-3 3ZM38 11l-1 2s4 1 4 5h2c0-4-4-6-5-7ZM43 20h-2v3h2v-3Z"/></symbol>

<symbol id="close"><path d="m15 4-1-1-4 4-5-4-1 1 4 5-4 4 1 1 5-4 4 4 1-1-4-4 4-5Z"/></symbol>

<symbol id="person-modal"><g clip-path="url(#clip0_1_3124)"><path id="Vector" d="M9 9a3 3 0 1 0 0-6 3 3 0 0 0 0 6Zm0 2c-2 0-6 1-6 3l1 1h10l1-1c0-2-4-3-6-3Z"/></g><defs><clipPath id="clip0_1_3124"><path fill="#fff" d="M0 0h18v18H0z"/></clipPath></defs></symbol>

<symbol id="phone-modal"><g clip-path="url(#clip0_1_3130)"><path id="Vector" d="M14 11h-3l-1 2-5-5 1-1 1-2-1-1-1-2H4L2 4c1 6 6 11 12 11l1-1v-1l-1-2Z"/></g><defs><clipPath id="clip0_1_3130"><path fill="#fff" d="M0 0h18v18H0z"/></clipPath></defs></symbol>

<symbol id="correo-modal"><g clip-path="url(#clip0_1_3135)"><path id="Vector" d="M15 3H3L2 5v9l1 1h12l2-1V5l-2-2Zm0 3-6 4-6-4 1-1 5 3 5-3a1 1 0 1 1 1 1Z"/></g><defs><clipPath id="clip0_1_3135"><path fill="#fff" d="M0 0h18v18H0z"/></clipPath></defs></symbol>

<symbol id="company-1"><path fill-rule="evenodd" d="m6 0 7 7H0v32h34V27l7 6V0H6Zm28 26L14 7h20v19Zm-6 8H5V12h2v21h21v1Zm-17 9-1 2-1-2H8l1 2v2h1v-2l1-2Zm1 4v-1h1l1 1-1-4h-1l-1 4h1Zm1-3v1h-1l1-1Zm3 1v1l1 1 1-1v1h1l-1-1v-1 1l-1-1 1-1a1 1 0 0 0 0-1h-2v2Zm1 1h-1l1-1v1Zm0-2Zm6 2v-1h-1v1h-1v-2h2v-1h-2l-1 1v2l1 1h1l1-1Zm3 0v-2a1 1 0 0 0-1-1h-1v1l-1 1 1 1 1 1 1-1Zm0-2v2h-2v-2h2Z" clip-rule="evenodd"/></symbol>

<symbol id="company-2"><path fill-rule="evenodd" d="M17 3h-1a24 24 0 0 0-1 0C11 3 7 4 4 6v22h1a38 38 0 0 1 11-2v3h-2a32 32 0 0 0-13 4V4a30 30 0 0 1 15-4 29 29 0 0 1 5 1v3l-3-1h-1Zm5 3h2a31 31 0 0 0 15-4v28a30 30 0 0 1-20 3V5a23 23 0 0 0 3 1Zm14 0h-1l-2 1a34 34 0 0 1-11 1h-1v23h3a27 27 0 0 0 12-3V6Z" clip-rule="evenodd"/><path d="M3 42a1 1 0 0 0-1 0H1a2 2 0 0 0-1 1v5h1v1h1a2 2 0 0 0 1-2H2v1a1 1 0 0 1-1 0v-5a1 1 0 0 1 1 0v1h1v-1a2 2 0 0 0 0-1ZM9 42a2 2 0 0 0-2 0H6v6l1 1a2 2 0 0 0 1 0l1-1a2 2 0 0 0 0-1v-5Zm-1 5a1 1 0 0 1 0 1 1 1 0 0 1-1 0 1 1 0 0 1 0-1v-4a1 1 0 0 1 1 0v4ZM16 49v-7h-1l-1 3-1-3h-1v7h1v-4l1 2 1-2v4h1ZM22 42h-3v7h1v-3h2v-1a5 5 0 0 0 0-2v-1Zm-1 2v1h-1v-2h1v1ZM27 42h-1l-2 7h1l1-2h1v2h1l-1-7Zm-1 4v-2l1 2h-1ZM33 46l-2-4v7-4h1l1 4h1v-7h-1v4ZM39 42l-1 3-1-3h-1l2 4v3h1v-3l1-4h-1ZM0 51v1h1v-2H0v1ZM4 50l-1 2h2l-1-2Zm0 1ZM8 51v1l-1-1h2l-1-1-1 1v1a1 1 0 0 0 1 0h1v-1H8ZM12 50v2h1-1v-2ZM15 50v2-2ZM19 51l-1-1v2-1l1 1v-2 1ZM22 51v-1h-1v2h2-1v-1ZM29 51h-1v-1 2-1h1v1-2 1ZM32 51h1-1 1v-1h-1v2h1-1v-1ZM36 51v-1h-1v2-1h1v1h1-1v-1Zm0 0h-1 1ZM39 51h1-1 1v-1h-1v2h1-1v-1Z"/></symbol>

<symbol id="company-3"><path d="M7 41h1l-1 1H5v-1H4a2 2 0 0 1 0-2h1v-1a3 3 0 0 1 2 0l1 1H7a2 2 0 0 0-1 0H5v2h2ZM14 40v1h-1v1h-2l-1-1v-2l1-1h2v1a2 2 0 0 1 1 1Zm-1 0v-1a1 1 0 0 0-1 0h-2v2a1 1 0 0 0 1 0h2v-1ZM18 41l2-3v4-3l-2 2-2-2v3-4h1l1 3ZM23 40v2-4h2v2l-1 1-1-1Zm0 0h2v-1h-2v1ZM31 42h-1v-1h-2l-1 1 1-4h1l2 4Zm-3-1h1v-2l-1 2ZM33 38l2 3v-3h1v4h-1l-2-3v3-4ZM40 40v2h-1v-2l-1-2h1v2a2 2 0 0 1 1 0l1-2-1 2ZM18 32c4-1 7-3 9-6 3-3 4-7 4-10l-4-4c0 4 0 8-2 11-1 4-4 7-7 9Z"/><path d="M16 32c4-2 7-5 8-9 2-4 2-8 1-12l-6-5a22 22 0 0 1-3 26ZM36 20c-1 4-3 7-7 10l-3 2 7-4 5-6-2-2Z"/><path d="m35 19-3-3c0 4-2 7-4 10s-4 5-8 6h3l8-5 4-8ZM17 4l-4-3C9 2 6 4 4 7c-2 2-3 6-3 9 0 4 1 7 4 10 2 3 6 5 10 6 4-4 6-9 6-14S20 8 17 4ZM44 19c0-5-2-9-5-12a20 20 0 0 0-20-4l24 22 1-6Z"/></symbol>

<symbol id="company-4"><path d="M13 13c-2 0-4 2-4 4s2 4 4 4c3 0 4-2 4-4s-1-4-4-4ZM45 12c0-3-1-6-3-8l-9-3c-4 0-7 1-9 3-3 2-4 5-4 8v16s25-2 25-16ZM0 34c0 2 1 4 3 5l6 2 6-2c2-1 2-3 2-5V22S0 24 0 34Zm9 2-2-1v-1l-1-1 1-1h4a2 2 0 0 1-1 3l-1 1ZM26 34h-1v2h-1v-4h3v1h-2v1h1Zm5 0-1 1a2 2 0 0 1-1 1h-1l-1-1v-2a2 2 0 0 1 2-1h1v1l1 1Zm-1 0v-1h-2v2l1 1 1-1v-1Zm3 1v-1h-1l-1-1v-1h3v1h-2l1 1h1v2h-3v-1h1l1 1v-1Zm5-2h-1v3h-1v-3h-1v-1h3v1Zm3 1h-1v2h2-3v-4h3v1h-2v1h1Zm3 1h-1v1h-1v-4h3v2h-1l1 2h-1v-1Zm-1-1h1v-1h-1v1Zm5 1v1h-1v-4h3v1h1l-1 1-1 1h-1Zm0-1h2v-1h-2v1Zm6 0h-2v2h2-3v-4h3v1h-2v1h2Zm4-1h-1v3h-1v-3h-2v-1h4v1Zm3 1h-2v2h2-3v-4h3v1h-2v1h2Zm2 1v1h-1v-4h3v2h-1l1 2h-1l-1-1Zm0-1h1v-1h-1v1Zm5 1-1-1h-1v-2h2l1 1h-3 1v1h1l1 1-1 1h-2l-1-1h1l1 1 1-1Z"/></symbol>

<symbol id="company-5"><path d="M5 39v2H0v-6h3l1 1h1v2H4l1 1Zm-4-1h2l1-1-1-1H1v2Zm2 2h1v-1H1v1h2ZM11 41l-2-2H8v2H7v-6h3l1 1 1 1v1l-2 1 2 2h-1Zm-3-3h2l1-1h-1v-1H8v2ZM18 40h-3v1h-2l3-6h1l3 6h-2v-1Zm0-1-1-2-1 2h2ZM27 41h-1l-3-4v4h-1v-6h1l3 4v-4h1v6ZM35 40l-1 1h-4v-6h2l2 1 1 1a3 3 0 0 1 0 3Zm-2 0 1-2-1-1-1-1h-1v4h2ZM19 1s17 6 17 15v14s-18-6-17-14V1ZM51 27c4-2 8-4 12-4v-5c-5 2-9 5-12 9Z"/><path d="M49 28c3-5 8-9 14-11V4s-25 9-25 21v21l3-1v-2c1-6 4-11 8-15Z"/><path d="m47 36 1-4a19 19 0 0 0-5 12l5-2-1-6ZM48 36v6c7-4 15-10 15-17-5 0-10 2-13 5l-2 6Z"/></symbol>

<symbol id="company-6"><path d="M47 21v-6l2-1h2l1 2v1h-2v-2h-1v6h1v-2h2v1l-1 1-2 1-2-1ZM54 21v-7h4l1 2v3l-1 2-2 1-2-1Zm3 0v-6h-1l-1 1v4l1 1a1 1 0 0 0 1 0ZM61 14h2l1 6 1-6h2v8h-1v-6l-1 6h-1l-2-6v6h-1v-8ZM69 14h3c2 0 2 1 2 2 0 2 0 2-2 2h-1v4h-2v-8Zm3 3h1v-2h-2v2h1ZM77 14h2l2 8h-2v-2h-2v2h-2l2-8Zm1 5v-3l-1 3h1ZM82 14h1l3 5v-5h1v8h-1l-2-5v5h-2v-8ZM90 19l-2-5h2l1 3 1-3h2l-2 5v3h-2v-3ZM50 26h-1v3h-1v-3h-1 3ZM54 29l-1-1h-2v1h-1l2-3h1l1 3Zm-2-1h1v-2h-1v2ZM57 29h1v-2h1v2a3 3 0 0 1-1 0h-2l-1-1v-1l1-1a3 3 0 0 1 2 0 2 2 0 0 1 1 0h-1a2 2 0 0 0-1 0h-1v3a1 1 0 0 0 1 0ZM63 29h2-3v-3h1v3ZM67 29h-1v-3h1v3ZM69 26l2 2v-2h1v3h-1l-2-3v3h-1v-3h1ZM76 26h-2v1h2v1h-2v1h2-3v-3h3ZM15 3l26 6v22l-26-6V3Zm-1-2v25l29 7V8L14 1Z"/><path d="M29 45 0 38V12l29 8v25Z"/><path d="m14 2 25 7-10 9-26-6L14 2Zm0-1L0 12l29 8L43 8 14 1ZM31 43l12-10-12-3v13Z"/></symbol>

<symbol id="enviar">
<path d="M24 0L0 13.5L7.66994 16.3407L19.5 5.25002L10.5017 17.3896L10.509 17.3923L10.5 17.3896V24.0001L14.8013 18.982L20.2501 21.0001L24 0Z"/>
</symbol>

</defs>
</svg>

